<svg width="98" height="98" viewBox="0 0 98 98" fill="none" xmlns="http://www.w3.org/2000/svg">
<path d="M95.1975 13.3974C93.7559 11.9533 91.4167 11.9508 89.975 13.3913L45.6658 57.5836L29.6792 40.2205C28.2978 38.7211 25.9623 38.6238 24.4603 40.005C22.9595 41.3864 22.8634 43.7231 24.2448 45.2239L42.8353 65.4136C43.5161 66.1536 44.4689 66.5833 45.4736 66.6042C45.5006 66.6053 45.5267 66.6053 45.5525 66.6053C46.5289 66.6053 47.4681 66.2175 48.16 65.5281L95.1903 18.6211C96.6356 17.1808 96.6381 14.8416 95.1975 13.3974Z" fill="#12C6B2"/>
<path d="M94.3064 45.3064C92.2664 45.3064 90.6131 46.9598 90.6131 49C90.6131 71.9464 71.9464 90.6131 49 90.6131C26.055 90.6131 7.38694 71.9464 7.38694 49C7.38694 26.055 26.055 7.38694 49 7.38694C51.04 7.38694 52.6936 5.73357 52.6936 3.69357C52.6936 1.65337 51.04 0 49 0C21.9811 0 0 21.9811 0 49C0 76.0178 21.9811 98 49 98C76.0178 98 98 76.0178 98 49C98 46.96 96.3466 45.3064 94.3064 45.3064Z" fill="#12C6B2"/>
</svg>
