<svg width="57" height="36" viewBox="0 0 57 36" fill="none" xmlns="http://www.w3.org/2000/svg">
<path d="M57 33.8278C57 34.9962 56.0539 35.9423 54.8855 35.9423H2.11405C0.946425 35.9423 0 34.9962 0 33.8278V2.11438C0 0.946758 0.946425 0 2.11405 0H54.8856C56.054 0 57.0001 0.946758 57.0001 2.11438L57 33.8278Z" fill="#0A0D18"/>
<path d="M18.6133 29.8807V28.2922C18.6133 27.6832 18.2426 27.2861 17.6071 27.2861C17.2895 27.2861 16.9453 27.392 16.7069 27.7362C16.5217 27.445 16.257 27.2861 15.8598 27.2861C15.595 27.2861 15.3304 27.3655 15.1185 27.6567V27.3391H14.5625V29.8807H15.1185V28.4775C15.1185 28.0275 15.3568 27.8156 15.7275 27.8156C16.098 27.8156 16.2835 28.0539 16.2835 28.4775V29.8807H16.8395V28.4775C16.8395 28.0275 17.1041 27.8156 17.4483 27.8156C17.819 27.8156 18.0043 28.0539 18.0043 28.4775V29.8807H18.6133ZM26.847 27.3391H25.9469V26.5713H25.391V27.3391H24.8879V27.842H25.3908V29.007C25.3908 29.5895 25.6292 29.9336 26.2646 29.9336C26.5029 29.9336 26.7675 29.8543 26.953 29.7484L26.7941 29.2717C26.6352 29.3776 26.45 29.4042 26.3176 29.4042C26.0528 29.4042 25.9469 29.2453 25.9469 28.9805V27.842H26.847V27.3391ZM31.5597 27.286C31.242 27.286 31.0302 27.445 30.8978 27.6567V27.3391H30.3418V29.8807H30.8978V28.451C30.8978 28.0275 31.0831 27.7892 31.4273 27.7892C31.5332 27.7892 31.6656 27.8157 31.7715 27.8421L31.9303 27.3127C31.8244 27.2861 31.6656 27.2861 31.5597 27.2861V27.286ZM24.4378 27.5509C24.173 27.3655 23.8024 27.2861 23.4052 27.2861C22.7699 27.2861 22.3463 27.6038 22.3463 28.1068C22.3463 28.5305 22.664 28.7687 23.22 28.8482L23.4847 28.8747C23.776 28.9275 23.9348 29.007 23.9348 29.1394C23.9348 29.3247 23.723 29.4571 23.3523 29.4571C22.9817 29.4571 22.6904 29.3247 22.5051 29.1924L22.2403 29.6159C22.5316 29.8277 22.9287 29.9336 23.3258 29.9336C24.0671 29.9336 24.4908 29.5895 24.4908 29.1129C24.4908 28.6628 24.1466 28.4245 23.617 28.3451L23.3523 28.3186C23.114 28.2921 22.9287 28.2393 22.9287 28.0804C22.9287 27.8951 23.114 27.7892 23.4052 27.7892C23.723 27.7892 24.0407 27.9215 24.1995 28.0009L24.4378 27.5509ZM39.2111 27.2861C38.8933 27.2861 38.6815 27.445 38.5491 27.6567V27.3391H37.9931V29.8807H38.5491V28.451C38.5491 28.0275 38.7345 27.7892 39.0786 27.7892C39.1846 27.7892 39.317 27.8157 39.4229 27.8421L39.5817 27.3127C39.4758 27.2861 39.317 27.2861 39.2111 27.2861ZM32.1157 28.6099C32.1157 29.3776 32.6451 29.9336 33.4659 29.9336C33.8365 29.9336 34.1013 29.8543 34.366 29.6425L34.1013 29.1924C33.8895 29.3512 33.6777 29.4306 33.4394 29.4306C32.9893 29.4306 32.6716 29.1129 32.6716 28.6099C32.6716 28.1334 32.9893 27.8156 33.4394 27.7892C33.6777 27.7892 33.8895 27.8685 34.1013 28.0275L34.366 27.5774C34.1013 27.3655 33.8365 27.2861 33.4659 27.2861C32.6451 27.2861 32.1157 27.8421 32.1157 28.6099ZM37.2519 28.6099V27.3391H36.6959V27.6567C36.5106 27.4186 36.2458 27.2861 35.9016 27.2861C35.1868 27.2861 34.6308 27.8421 34.6308 28.6099C34.6308 29.3776 35.1868 29.9336 35.9016 29.9336C36.2723 29.9336 36.5371 29.8013 36.6959 29.563V29.8807H37.2519V28.6099ZM35.2132 28.6099C35.2132 28.1598 35.5045 27.7892 35.981 27.7892C36.4311 27.7892 36.7489 28.1334 36.7489 28.6099C36.7489 29.06 36.4311 29.4306 35.981 29.4306C35.5045 29.404 35.2132 29.06 35.2132 28.6099ZM28.568 27.2861C27.8267 27.2861 27.2971 27.8156 27.2971 28.6099C27.2971 29.4042 27.8265 29.9336 28.5944 29.9336C28.965 29.9336 29.3358 29.8277 29.627 29.5895L29.3622 29.1924C29.1504 29.3512 28.8857 29.4571 28.621 29.4571C28.2768 29.4571 27.9326 29.2983 27.8531 28.8481H29.7329V28.6364C29.7594 27.8156 29.2828 27.2861 28.5679 27.2861H28.568ZM28.568 27.7626C28.9121 27.7626 29.1505 27.9745 29.2033 28.3717H27.8796C27.9326 28.0275 28.1709 27.7626 28.568 27.7626ZM42.3616 28.6099V26.333H41.8056V27.6567C41.6203 27.4186 41.3555 27.2861 41.0113 27.2861C40.2965 27.2861 39.7406 27.8421 39.7406 28.6099C39.7406 29.3776 40.2965 29.9336 41.0113 29.9336C41.3821 29.9336 41.6468 29.8013 41.8056 29.563V29.8807H42.3616V28.6099ZM40.3231 28.6099C40.3231 28.1598 40.6142 27.7892 41.0908 27.7892C41.5409 27.7892 41.8586 28.1334 41.8586 28.6099C41.8586 29.06 41.5409 29.4306 41.0908 29.4306C40.6142 29.404 40.3231 29.06 40.3231 28.6099ZM21.7373 28.6099V27.3391H21.1813V27.6567C20.9959 27.4186 20.7312 27.2861 20.387 27.2861C19.6722 27.2861 19.1162 27.8421 19.1162 28.6099C19.1162 29.3776 19.6722 29.9336 20.387 29.9336C20.7578 29.9336 21.0225 29.8013 21.1813 29.563V29.8807H21.7373V28.6099ZM19.6722 28.6099C19.6722 28.1598 19.9635 27.7892 20.44 27.7892C20.8901 27.7892 21.2078 28.1334 21.2078 28.6099C21.2078 29.06 20.8901 29.4306 20.44 29.4306C19.9635 29.404 19.6722 29.06 19.6722 28.6099Z" fill="white"/>
<path d="M24.252 8.03857H32.5917V23.0236H24.252V8.03857Z" fill="#FF5F00"/>
<path d="M24.7816 15.5311C24.7816 12.4865 26.2112 9.78597 28.4086 8.03855C26.7937 6.76776 24.7552 6 22.5313 6C17.2625 6 13 10.2625 13 15.5311C13 20.7997 17.2625 25.0623 22.5311 25.0623C24.7551 25.0623 26.7936 24.2945 28.4086 23.0236C26.2112 21.3027 24.7816 18.5758 24.7816 15.5311Z" fill="#EB001B"/>
<path d="M43.8442 15.5311C43.8442 20.7997 39.5817 25.0623 34.313 25.0623C32.0891 25.0623 30.0505 24.2945 28.4355 23.0236C30.6595 21.2763 32.0627 18.5758 32.0627 15.5311C32.0627 12.4865 30.6329 9.78597 28.4355 8.03855C30.0504 6.76776 32.0891 6 34.313 6C39.5817 6 43.8443 10.289 43.8443 15.5311H43.8442Z" fill="#F79E1B"/>
</svg>
