<svg width="57" height="43" viewBox="0 0 57 43" fill="none" xmlns="http://www.w3.org/2000/svg">
<g clip-path="url(#clip0_108_917)">
<path d="M57 37.8278C57 38.9962 56.0539 39.9423 54.8855 39.9423H2.11405C0.946425 39.9423 0 38.9962 0 37.8278V6.11438C0 4.94676 0.946425 4 2.11405 4H54.8856C56.054 4 57.0001 4.94676 57.0001 6.11438L57 37.8278Z" fill="white"/>
<path d="M22.7666 27.6768L24.9507 15.3911H28.3634L26.2476 27.6768H22.7666Z" fill="#3C58BF"/>
<path d="M22.7666 27.6768L25.565 15.3911H28.3634L26.2476 27.6768H22.7666Z" fill="#293688"/>
<path d="M38.602 15.5275C37.9195 15.2545 36.8274 14.9814 35.4624 14.9814C32.0497 14.9814 29.5925 16.6878 29.5925 19.1449C29.5925 20.9878 31.2989 21.9433 32.6639 22.5576C34.029 23.1719 34.4385 23.5814 34.4385 24.1275C34.4385 24.9465 33.3465 25.356 32.3909 25.356C31.0258 25.356 30.2751 25.1513 29.1147 24.6735L28.637 24.4687L28.1592 27.2672C28.9782 27.6084 30.4798 27.9497 32.0497 27.9497C35.6671 27.9497 38.056 26.2434 38.056 23.6497C38.056 22.2164 37.1687 21.1243 35.1211 20.237C33.8925 19.6227 33.1417 19.2814 33.1417 18.6672C33.1417 18.1211 33.756 17.5751 35.1211 17.5751C36.2814 17.5751 37.1004 17.7799 37.7147 18.0529L38.056 18.1894L38.602 15.5275Z" fill="#3C58BF"/>
<path d="M38.602 15.5275C37.9195 15.2545 36.8274 14.9814 35.4624 14.9814C32.0497 14.9814 30.2068 16.6878 30.2068 19.1449C30.2068 20.9878 31.2989 21.9433 32.6639 22.5576C34.029 23.1719 34.4385 23.5814 34.4385 24.1275C34.4385 24.9465 33.3465 25.356 32.3909 25.356C31.0258 25.356 30.2751 25.1513 29.1147 24.6735L28.637 24.4687L28.1592 27.2672C28.9782 27.6084 30.4798 27.9497 32.0497 27.9497C35.6671 27.9497 38.056 26.2434 38.056 23.6497C38.056 22.2164 37.1687 21.1243 35.1211 20.237C33.8925 19.6227 33.1417 19.2814 33.1417 18.6672C33.1417 18.1211 33.756 17.5751 35.1211 17.5751C36.2814 17.5751 37.1004 17.7799 37.7147 18.0529L38.056 18.1894L38.602 15.5275Z" fill="#293688"/>
<path d="M44.4718 15.3911C43.6527 15.3911 43.0384 15.4594 42.6972 16.2784L37.5781 27.6768H41.2638L41.9464 25.6292H46.3146L46.7242 27.6768H50.0003L47.1337 15.3911H44.4718ZM42.9019 23.5816C43.1067 22.9673 44.267 19.9641 44.267 19.9641C44.267 19.9641 44.54 19.2133 44.7448 18.7356L44.9496 19.8959C44.9496 19.8959 45.6321 22.9673 45.7686 23.6498H42.9019V23.5816Z" fill="#3C58BF"/>
<path d="M45.2908 15.3911C44.4718 15.3911 43.8575 15.4594 43.5162 16.2784L37.5781 27.6768H41.2638L41.9464 25.6292H46.3146L46.7242 27.6768H50.0003L47.1337 15.3911H45.2908ZM42.9019 23.5816C43.175 22.899 44.267 19.9641 44.267 19.9641C44.267 19.9641 44.54 19.2133 44.7448 18.7356L44.9496 19.8959C44.9496 19.8959 45.6321 22.9673 45.7686 23.6498H42.9019V23.5816Z" fill="#293688"/>
<path d="M16.4872 23.9912L16.1459 22.2166C15.5317 20.169 13.5523 17.9166 11.3682 16.8246L14.4396 27.7452H18.1253L23.6539 15.4595H19.9682L16.4872 23.9912Z" fill="#3C58BF"/>
<path d="M16.4872 23.9912L16.1459 22.2166C15.5317 20.169 13.5523 17.9166 11.3682 16.8246L14.4396 27.7452H18.1253L23.6539 15.4595H20.6507L16.4872 23.9912Z" fill="#293688"/>
<path d="M7 15.3911L7.61429 15.5276C11.9825 16.5514 14.9857 19.1451 16.146 22.2165L14.9175 16.4149C14.7127 15.5959 14.0984 15.3911 13.3476 15.3911H7Z" fill="#FFBC00"/>
<path d="M7 15.3911C11.3683 16.4149 14.9857 19.0768 16.146 22.1483L14.9857 17.3022C14.781 16.4832 14.0984 16.0054 13.3476 16.0054L7 15.3911Z" fill="#F7981D"/>
<path d="M7 15.3911C11.3683 16.4149 14.9857 19.0768 16.146 22.1483L15.327 19.4864C15.1222 18.6673 14.8492 17.8483 13.8937 17.507L7 15.3911Z" fill="#ED7C00"/>
<path d="M19.9 23.5817L17.5794 21.2611L16.4873 23.8548L16.2143 22.1484C15.6 20.1008 13.6207 17.8484 11.4365 16.7563L14.508 27.677H18.1937L19.9 23.5817Z" fill="#051244"/>
<path d="M26.2476 27.677L23.3126 24.6738L22.7666 27.677H26.2476Z" fill="#051244"/>
<path d="M34.0973 23.4453C34.3703 23.7183 34.5068 23.9231 34.4385 24.1961C34.4385 25.0152 33.3465 25.4247 32.3909 25.4247C31.0258 25.4247 30.2751 25.2199 29.1147 24.7421L28.637 24.5374L28.1592 27.3358C28.9782 27.6771 30.4798 28.0183 32.0497 28.0183C34.2338 28.0183 36.0084 27.404 37.0322 26.312L34.0973 23.4453Z" fill="#051244"/>
<path d="M38.0557 27.6771H41.2636L41.9461 25.6295H46.3144L46.7239 27.6771H50.0001L48.8398 22.6946L44.7446 18.7358L44.9493 19.8279C44.9493 19.8279 45.6319 22.8993 45.7684 23.5819H42.9017C43.1747 22.8993 44.2668 19.9644 44.2668 19.9644C44.2668 19.9644 44.5398 19.2136 44.7446 18.7358" fill="#051244"/>
</g>
<defs>
<clipPath id="clip0_108_917">
<rect width="57" height="43" fill="white"/>
</clipPath>
</defs>
</svg>
